<?xml version="1.0" encoding="utf-8"?>
<!-- Generator: Adobe Illustrator 16.0.3, SVG Export Plug-In . SVG Version: 6.00 Build 0)  -->
<!DOCTYPE svg PUBLIC "-//W3C//DTD SVG 1.1//EN" "http://www.w3.org/Graphics/SVG/1.1/DTD/svg11.dtd">
<svg version="1.1" xmlns="http://www.w3.org/2000/svg" xmlns:xlink="http://www.w3.org/1999/xlink" x="0px" y="0px" width="259px"
	 height="259px" viewBox="247.138 278.445 259 259" enable-background="new 247.138 278.445 259 259" xml:space="preserve">
<g id="Layer_2">
	<circle fill="#FFFFFF" cx="376.638" cy="407.945" r="129.5"/>
</g>
<g id="Layer_1">
	<g>
		<path fill="#231F20" d="M376.703,408.443c0,5.482,1.163,12.124,7.472,12.124c4.819,0,9.467-5.148,14.615-5.148
			c20.432,0,38.034,14.782,38.034,34.546c0,28.066-15.446,41.521-44.013,41.521c-13.785,0-25.242-10.131-25.242-23.586
			c0-6.976,5.646-12.787,12.621-12.787c6.977,0,12.621,5.812,12.621,12.787c0,6.479-8.136,6.146-8.136,12.625
			c0,3.817,3.984,6.309,8.136,6.309c19.267,0,23.252-14.945,23.252-36.869c0-17.603-1.99-29.895-17.273-29.895
			c-11.957,0-19.764,11.791-19.764,24.746c0,1.493-1.16,2.323-2.323,2.323c-1.164,0-2.157-0.83-2.157-2.323
			c0-12.621-5.148-24.416-13.951-33.215v78.224c0,0.997-0.664,1.661-1.661,1.661h-3.488c-0.997,0-1.66-0.664-1.66-1.661v-162.76
			c0-0.997,0.663-1.661,1.66-1.661h3.488c0.997,0,1.661,0.664,1.661,1.661v78.224c8.803-8.804,13.951-20.594,13.951-33.215
			c0-1.498,0.993-2.328,2.157-2.328c1.163,0,2.323,0.83,2.323,2.328c0,12.955,7.807,24.745,19.764,24.745
			c15.283,0,17.273-12.291,17.273-29.894c0-21.925-3.985-36.869-23.252-36.869c-4.151,0-8.136,2.491-8.136,6.308
			c0,6.48,8.136,6.146,8.136,12.625c0,6.972-5.645,12.788-12.621,12.788c-6.976,0-12.621-5.816-12.621-12.788
			c0-13.455,11.457-23.585,25.242-23.585c28.566,0,44.013,13.451,44.013,41.521c0,19.764-17.603,34.542-38.034,34.542
			c-5.148,0-9.796-5.145-14.615-5.145C377.866,396.322,376.703,402.964,376.703,408.443z M345.315,491.486h-19.764
			c-0.997,0-1.664-0.664-1.664-1.661v-162.76c0-0.997,0.667-1.661,1.664-1.661h19.764c0.993,0,1.661,0.664,1.661,1.661v162.76
			C346.977,490.822,346.309,491.486,345.315,491.486z"/>
	</g>
</g>
</svg>
